<?xml version="1.0" encoding="UTF-8" standalone="no"?>
<svg
   xmlns:dc="http://purl.org/dc/elements/1.1/"
   xmlns:cc="http://creativecommons.org/ns#"
   xmlns:rdf="http://www.w3.org/1999/02/22-rdf-syntax-ns#"
   xmlns:svg="http://www.w3.org/2000/svg"
   xmlns="http://www.w3.org/2000/svg"
   xmlns:sodipodi="http://sodipodi.sourceforge.net/DTD/sodipodi-0.dtd"
   xmlns:inkscape="http://www.inkscape.org/namespaces/inkscape"
   fill="#FFFFFF"
   height="24"
   viewBox="0 0 24 24"
   width="24"
   id="svg4136"
   version="1.1"
   inkscape:version="0.91 r13725"
   sodipodi:docname="ic_cast_notification.svg"
   inkscape:export-filename="D:\soluciones\ruesga.com\photophase\app\src\main\res\drawable-mdpi\ic_cast_notification.png"
   inkscape:export-xdpi="90"
   inkscape:export-ydpi="90">
  <metadata
     id="metadata4146">
    <rdf:RDF>
      <cc:Work
         rdf:about="">
        <dc:format>image/svg+xml</dc:format>
        <dc:type
           rdf:resource="http://purl.org/dc/dcmitype/StillImage" />
        <dc:title></dc:title>
      </cc:Work>
    </rdf:RDF>
  </metadata>
  <defs
     id="defs4144" />
  <sodipodi:namedview
     pagecolor="#ffffff"
     bordercolor="#666666"
     borderopacity="1"
     objecttolerance="10"
     gridtolerance="10"
     guidetolerance="10"
     inkscape:pageopacity="0"
     inkscape:pageshadow="2"
     inkscape:window-width="1280"
     inkscape:window-height="961"
     id="namedview4142"
     showgrid="false"
     inkscape:zoom="11.22532016"
     inkscape:cx="5.0570679651"
     inkscape:cy="0.30828886308"
     inkscape:window-x="-8"
     inkscape:window-y="-8"
     inkscape:window-maximized="1"
     inkscape:current-layer="svg4136"
     showguides="true"
     inkscape:guide-bbox="true">
    <sodipodi:guide
       position="12,32.961197963"
       orientation="1,0"
       id="guide5292"
       inkscape:label=""
       inkscape:color="rgb(0,0,255)" />
  </sodipodi:namedview>
  <path
     style="fill:#ffffff;fill-opacity:1"
     d="M 3,4 C 1.9,4 1,4.9 1,6 l 0,12 c 0,1.1 0.9,2 2,2 l 18,0 c 1.1,0 2,-0.9 2,-2 l 0,-6.740234375 -7.259765625,0 L 15.740234375,4 3,4 Z M 14.5,11 19,17 5,17 8.5,12.5 11,15.51171875 14.5,11 Z"
     id="path4717-6"
     inkscape:connector-curvature="0" />
  <path
     d="m 16.276047304,8.890147415 0,1.833805281 1.833805282,0 c 0,-1.014705588 -0.819099694,-1.833805281 -1.833805282,-1.833805281 z m 0,-2.445073707 0,1.222536854 c 1.687100859,0 3.056342134,1.369241276 3.056342134,3.056342134 l 1.222536856,0 c 0,-2.365608811 -1.913270177,-4.278878988 -4.27887899,-4.278878988 z m 0,-2.445073708 0,1.222536854 c 3.038004082,0 5.501415843,2.463411761 5.501415843,5.501415842 l 1.222536853,0 C 23,7.007440661 19.986446655,4 16.276047304,4 Z"
     id="path4154-2"
     style="fill:#ffffff;fill-opacity:1"
     inkscape:connector-curvature="0"
     sodipodi:nodetypes="cccccccccccccc" />
</svg>
